<svg width="61" height="55" viewBox="0 0 61 55" fill="none" xmlns="http://www.w3.org/2000/svg">
<path d="M30.4008 50.417L36.6841 45.8337M30.4008 50.417V29.792V50.417ZM30.4008 50.417L24.1176 45.8337L30.4008 50.417Z" stroke="#F8F8F8" stroke-width="3" stroke-linecap="round" stroke-linejoin="round"/>
<path d="M12.8932 20.8936C10.5161 21.439 8.43928 22.757 7.05288 24.6002C5.66648 26.4433 5.06593 28.6847 5.36407 30.9031C5.66221 33.1215 6.83851 35.1643 8.67198 36.6476C10.5054 38.131 12.8699 38.9528 15.321 38.9588H17.8343" stroke="#F8F8F8" stroke-width="3" stroke-linecap="round" stroke-linejoin="round"/>
<path d="M40.0268 16.3579C39.1678 13.2563 37.0475 10.5686 34.0957 8.83955C31.1439 7.11053 27.5816 6.46959 24.1308 7.04666C20.68 7.62373 17.5989 9.37564 15.5122 11.9472C13.4254 14.5188 12.4892 17.7177 12.8932 20.8954C12.8932 20.8954 13.2777 22.9167 14.0644 24.0625" stroke="#F8F8F8" stroke-width="3" stroke-linecap="round" stroke-linejoin="round"/>
<path d="M42.9673 38.9587C44.7418 38.9575 46.4959 38.6138 48.1142 37.95C49.7325 37.2862 51.1783 36.3174 52.3563 35.1074C53.5344 33.8975 54.4181 32.4737 54.9492 30.9299C55.4803 29.386 55.6468 27.7571 55.4378 26.1504C55.2287 24.5437 54.6488 22.9955 53.7363 21.6079C52.8238 20.2202 51.5993 19.0245 50.1434 18.0994C48.6875 17.1744 47.0333 16.5409 45.2896 16.2408C43.5459 15.9407 41.7523 15.9807 40.0268 16.3582L36.6841 17.1878" stroke="#F8F8F8" stroke-width="3" stroke-linecap="round" stroke-linejoin="round"/>
</svg>
